<svg xmlns="http://www.w3.org/2000/svg" width="30.63" height="40.233" viewBox="0 0 30.63 40.233">
  <g id="recycle-bin" transform="translate(-10.354 -2)">
    <path id="Path_60" data-name="Path 60" d="M35.987,49.465H17.825A2.937,2.937,0,0,1,14.9,46.707L13.264,19.617a.575.575,0,0,1,.575-.609H39.974a.575.575,0,0,1,.575.609L38.913,46.707A2.937,2.937,0,0,1,35.987,49.465ZM14.448,20.158l1.6,26.482a1.786,1.786,0,0,0,1.778,1.676H35.987a1.786,1.786,0,0,0,1.782-1.677l1.6-26.482Z" transform="translate(-1.237 -7.233)" fill="#ababab"/>
    <path id="Path_61" data-name="Path 61" d="M40.409,15.738H10.929a.575.575,0,0,1-.575-.575V12.728a4.117,4.117,0,0,1,4.112-4.112H36.872a4.117,4.117,0,0,1,4.112,4.112v2.435A.575.575,0,0,1,40.409,15.738ZM11.5,14.589H39.834v-1.86a2.966,2.966,0,0,0-2.963-2.963H14.466A2.966,2.966,0,0,0,11.5,12.728Z" transform="translate(0 -2.813)" fill="#ababab"/>
    <path id="Path_62" data-name="Path 62" d="M37.955,6.952H27.343a.575.575,0,0,1-.575-.575V4.343A2.346,2.346,0,0,1,29.111,2h7.075A2.346,2.346,0,0,1,38.53,4.343V6.377A.575.575,0,0,1,37.955,6.952ZM27.918,5.8H37.38V4.343A1.2,1.2,0,0,0,36.186,3.15H29.111a1.2,1.2,0,0,0-1.194,1.194Z" transform="translate(-6.98)" fill="#ababab"/>
    <path id="Path_63" data-name="Path 63" d="M46.64,48.311a.575.575,0,0,1-.575-.575v-17a.575.575,0,0,1,1.15,0v17A.575.575,0,0,1,46.64,48.311Z" transform="translate(-15.186 -11.976)" fill="#ababab"/>
    <path id="Path_64" data-name="Path 64" d="M36.575,48.311A.575.575,0,0,1,36,47.736v-17a.575.575,0,1,1,1.15,0v17A.575.575,0,0,1,36.575,48.311Z" transform="translate(-10.906 -11.976)" fill="#ababab"/>
    <path id="Path_65" data-name="Path 65" d="M26.51,48.311a.575.575,0,0,1-.575-.575v-17a.575.575,0,0,1,1.15,0v17A.575.575,0,0,1,26.51,48.311Z" transform="translate(-6.626 -11.976)" fill="#ababab"/>
  </g>
</svg>
